<svg width="40" height="40" viewBox="0 0 40 40" fill="none" xmlns="http://www.w3.org/2000/svg">
<path d="M21.0564 20.3536L23.2929 22.59L22.59 23.2929L20.3536 21.0564L20 20.7029L19.6464 21.0564L17.41 23.2929L16.7071 22.59L18.9436 20.3536L19.2971 20L18.9436 19.6464L16.7071 17.41L17.41 16.7071L19.6464 18.9436L20 19.2971L20.3536 18.9436L22.59 16.7071L23.2929 17.41L21.0564 19.6464L20.7029 20L21.0564 20.3536ZM11.5 20C11.5 24.6861 15.3139 28.5 20 28.5C24.6861 28.5 28.5 24.6861 28.5 20C28.5 15.3139 24.6861 11.5 20 11.5C15.3139 11.5 11.5 15.3139 11.5 20ZM10.5 20C10.5 14.7461 14.7461 10.5 20 10.5C25.2539 10.5 29.5 14.7461 29.5 20C29.5 25.2539 25.2539 29.5 20 29.5C14.7461 29.5 10.5 25.2539 10.5 20Z" fill="#201F1E" stroke="#FA5252"/>
</svg>
