<svg width="48" height="48" viewBox="0 0 48 48" fill="none" xmlns="http://www.w3.org/2000/svg">
<path d="M16.125 13.5V15.25H31.875V13.5H16.125ZM15.25 17V17.875V24H13.5V24.875V34.5H34.5V24H32.75V17H15.25ZM17 18.75H31V24H28.8125L27.0625 22.25L25.75 23.5625L22.6875 20.5L19.1875 24H17V18.75ZM28.375 19.625C28.1429 19.625 27.9204 19.7172 27.7563 19.8813C27.5922 20.0454 27.5 20.2679 27.5 20.5C27.5 20.7321 27.5922 20.9546 27.7563 21.1187C27.9204 21.2828 28.1429 21.375 28.375 21.375C28.6071 21.375 28.8296 21.2828 28.9937 21.1187C29.1578 20.9546 29.25 20.7321 29.25 20.5C29.25 20.2679 29.1578 20.0454 28.9937 19.8813C28.8296 19.7172 28.6071 19.625 28.375 19.625ZM15.25 25.75H32.75V32.75H15.25V25.75ZM22.25 27.5C22.1341 27.4984 22.0189 27.5198 21.9113 27.563C21.8037 27.6063 21.7058 27.6704 21.6232 27.7519C21.5407 27.8333 21.4751 27.9303 21.4303 28.0373C21.3856 28.1442 21.3625 28.259 21.3625 28.375C21.3625 28.491 21.3856 28.6058 21.4303 28.7127C21.4751 28.8197 21.5407 28.9167 21.6232 28.9981C21.7058 29.0796 21.8037 29.1437 21.9113 29.187C22.0189 29.2302 22.1341 29.2516 22.25 29.25H25.75C25.8659 29.2516 25.9811 29.2302 26.0887 29.187C26.1963 29.1437 26.2942 29.0796 26.3768 28.9981C26.4593 28.9167 26.5249 28.8197 26.5697 28.7127C26.6144 28.6058 26.6375 28.491 26.6375 28.375C26.6375 28.259 26.6144 28.1442 26.5697 28.0373C26.5249 27.9303 26.4593 27.8333 26.3768 27.7519C26.2942 27.6704 26.1963 27.6063 26.0887 27.563C25.9811 27.5198 25.8659 27.4984 25.75 27.5H22.25Z" fill="#F8F9FA"/>
</svg>
