<svg width="41" height="40" viewBox="0 0 41 40" fill="none" xmlns="http://www.w3.org/2000/svg">
<path d="M27.25 29H16.25V15H27.25V29ZM27.25 13H16.25C15.7196 13 15.2109 13.2107 14.8358 13.5858C14.4607 13.9609 14.25 14.4696 14.25 15V29C14.25 29.5304 14.4607 30.0391 14.8358 30.4142C15.2109 30.7893 15.7196 31 16.25 31H27.25C27.7804 31 28.2891 30.7893 28.6642 30.4142C29.0393 30.0391 29.25 29.5304 29.25 29V15C29.25 14.4696 29.0393 13.9609 28.6642 13.5858C28.2891 13.2107 27.7804 13 27.25 13ZM24.25 9H12.25C11.7196 9 11.2109 9.21071 10.8358 9.58579C10.4607 9.96086 10.25 10.4696 10.25 11V25H12.25V11H24.25V9Z" fill="#F8F9FA"/>
</svg>
