<svg width="48" height="48" viewBox="0 0 48 48" fill="none" xmlns="http://www.w3.org/2000/svg">
<path fill-rule="evenodd" clip-rule="evenodd" d="M21.7266 14.4306C17.7067 15.3821 14.641 18.8011 14.217 23H18.7147C18.951 19.9207 19.994 16.9665 21.7266 14.4306ZM26.2736 14.4306C28.0061 16.9665 29.0492 19.9207 29.2855 23H33.7832C33.3592 18.8011 30.2935 15.3821 26.2736 14.4306ZM27.2788 23C27.0168 19.9761 25.8765 17.0947 24.0001 14.7112C22.1237 17.0947 20.9834 19.9761 20.7213 23H27.2788ZM20.7214 25H27.2788C27.0167 28.0237 25.8764 30.905 24.0001 33.2885C22.1237 30.905 20.9834 28.0237 20.7214 25ZM18.7147 25H14.217C14.6411 29.1988 17.7068 32.6176 21.7266 33.569C19.9941 31.0333 18.951 28.0791 18.7147 25ZM26.2736 33.569C28.0061 31.0333 29.0491 28.0791 29.2855 25H33.7832C33.359 29.1988 30.2934 32.6176 26.2736 33.569ZM24.0001 35.8332C30.5343 35.8332 35.8316 30.537 35.8334 24.0032V24V23.9998C35.8334 17.4645 30.5355 12.1665 24.0001 12.1665C17.4647 12.1665 12.1667 17.4645 12.1667 23.9998C12.1667 30.5352 17.4647 35.8332 24.0001 35.8332Z" fill="url(#paint0_linear_43331_28952)"/>
<defs>
<linearGradient id="paint0_linear_43331_28952" x1="24.0001" y1="12.1665" x2="24.0001" y2="35.8332" gradientUnits="userSpaceOnUse">
<stop stop-color="#38D9A9"/>
<stop offset="1" stop-color="#1975D3"/>
</linearGradient>
</defs>
</svg>
