<svg width="285" height="166" viewBox="0 0 285 166" fill="none" xmlns="http://www.w3.org/2000/svg">
<mask id="mask0_43329_28680" style="mask-type:alpha" maskUnits="userSpaceOnUse" x="0" y="24" width="285" height="142">
<rect y="24" width="285" height="142" fill="url(#paint0_linear_43329_28680)"/>
</mask>
<g mask="url(#mask0_43329_28680)">
<path d="M48.2661 111.445C31.1048 111.445 8.93817 138.281 0 151.699V166H285V72.78C282.957 72.9566 277.262 73.2037 270.827 72.78C262.782 72.2503 253.972 61.1275 248.992 51.5936C245.008 43.9666 242.5 39.5 235 35.5C227.5 31.5 217 27.5 202 35.5C187 43.5 165.101 79.6656 138.286 96.6147C116.835 110.174 101.767 112.151 96.9153 111.445H48.2661Z" fill="url(#paint1_linear_43329_28680)"/>
</g>
<defs>
<linearGradient id="paint0_linear_43329_28680" x1="285" y1="99" x2="4.83055e-06" y2="99" gradientUnits="userSpaceOnUse">
<stop stop-color="#17191E"/>
<stop offset="1" stop-color="#17191E" stop-opacity="0"/>
</linearGradient>
<linearGradient id="paint1_linear_43329_28680" x1="142.5" y1="40" x2="142.5" y2="166" gradientUnits="userSpaceOnUse">
<stop stop-color="#38D9A9" stop-opacity="0.53"/>
<stop offset="1" stop-color="#1975D3" stop-opacity="0"/>
</linearGradient>
</defs>
</svg>
