<svg width="48" height="48" viewBox="0 0 48 48" fill="none" xmlns="http://www.w3.org/2000/svg">
<circle cx="24" cy="24" r="15.5" stroke="#626B78"/>
<path d="M24 25C24.5523 25 25 24.5523 25 24C25 23.4477 24.5523 23 24 23C23.4477 23 23 23.4477 23 24C23 24.5523 23.4477 25 24 25Z" stroke="#F8F9FA" stroke-width="2" stroke-linecap="round" stroke-linejoin="round"/>
<path d="M31 25C31.5523 25 32 24.5523 32 24C32 23.4477 31.5523 23 31 23C30.4477 23 30 23.4477 30 24C30 24.5523 30.4477 25 31 25Z" stroke="#F8F9FA" stroke-width="2" stroke-linecap="round" stroke-linejoin="round"/>
<path d="M17 25C17.5523 25 18 24.5523 18 24C18 23.4477 17.5523 23 17 23C16.4477 23 16 23.4477 16 24C16 24.5523 16.4477 25 17 25Z" stroke="#F8F9FA" stroke-width="2" stroke-linecap="round" stroke-linejoin="round"/>
</svg>
