<svg width="48" height="48" viewBox="0 0 48 48" fill="none" xmlns="http://www.w3.org/2000/svg">
<path d="M15 15V21H21V15H15ZM23 15V17H25V15H23ZM27 15V21H33V15H27ZM17 17H19V19H17V17ZM29 17H31V19H29V17ZM23 19V21H25V19H23ZM15 23V25H17V23H15ZM19 23V25H21V23H19ZM23 23V25H25V23H23ZM25 25V27H27V25H25ZM27 25H29V23H27V25ZM29 25V27H31V25H29ZM31 25H33V23H31V25ZM31 27V29H33V27H31ZM31 29H29V31H31V29ZM31 31V33H33V31H31ZM29 31H27V33H29V31ZM27 31V29H25V31H27ZM25 31H23V33H25V31ZM25 29V27H23V29H25ZM27 29H29V27H27V29ZM15 27V33H21V27H15ZM17 29H19V31H17V29Z" fill="white"/>
</svg>
