<svg width="48" height="48" viewBox="0 0 48 48" fill="none" xmlns="http://www.w3.org/2000/svg">
<path d="M21.2793 12.3335L20.7051 15.2775C19.7475 15.6396 18.8621 16.1455 18.0846 16.7837L15.2568 15.8084L12.5361 20.5252L14.7988 22.4917C14.7186 22.984 14.6667 23.4852 14.6667 24.0002C14.6667 24.5151 14.7186 25.0163 14.7988 25.5086L12.5361 27.4751L15.2568 32.1919L18.0846 31.2166C18.8621 31.8549 19.7475 32.3607 20.7051 32.7228L21.2793 35.6668H26.7207L27.2949 32.7228C28.2525 32.3607 29.1379 31.8549 29.9154 31.2166L32.7432 32.1919L35.4639 27.4751L33.2012 25.5086C33.2814 25.0163 33.3333 24.5151 33.3333 24.0002C33.3333 23.4852 33.2814 22.984 33.2012 22.4917L35.4639 20.5252L32.7432 15.8084L29.9154 16.7837C29.1379 16.1455 28.2525 15.6396 27.2949 15.2775L26.7207 12.3335H21.2793ZM24 19.3335C26.5772 19.3335 28.6667 21.423 28.6667 24.0002C28.6667 26.5773 26.5772 28.6668 24 28.6668C21.4228 28.6668 19.3333 26.5773 19.3333 24.0002C19.3333 21.423 21.4228 19.3335 24 19.3335Z" fill="#F8F9FA"/>
</svg>
