<svg width="38" height="38" viewBox="0 0 38 38" fill="none" xmlns="http://www.w3.org/2000/svg">
<path d="M16.9114 8L16.7791 8.6875L16.2767 11.1995C15.4703 11.5168 14.7431 11.963 14.082 12.4952L11.6229 11.649L10.9618 11.4375L10.6181 12.0457L8.92578 14.9543L8.58203 15.5625L9.08444 16.012L10.9883 17.6779C10.9189 18.1109 10.8296 18.5439 10.8296 19C10.8296 19.4561 10.9189 19.8891 10.9883 20.3221L9.08444 21.988L8.58203 22.4375L8.92578 23.0457L10.6181 25.9543L10.9618 26.5625L11.6229 26.351L14.082 25.5048C14.7431 26.037 15.4703 26.4832 16.2767 26.8005L16.7791 29.3125L16.9114 30H21.671L21.8032 29.3125L22.3056 26.8005C23.1121 26.4832 23.8392 26.037 24.5003 25.5048L26.9594 26.351L27.6205 26.5625L27.9642 25.9543L29.6566 23.0457L30.0003 22.4375L29.4979 21.988L27.5941 20.3221C27.6635 19.8891 27.7527 19.4561 27.7527 19C27.7527 18.5439 27.6635 18.1109 27.5941 17.6779L29.4979 16.012L30.0003 15.5625L29.6566 14.9543L27.9642 12.0457L27.6205 11.4375L26.9594 11.649L24.5003 12.4952C23.8392 11.963 23.1121 11.5168 22.3056 11.1995L21.8032 8.6875L21.671 8H16.9114ZM18.2864 9.69231H20.296L20.7191 11.887L20.8248 12.3894L21.3008 12.5481C22.2626 12.8489 23.1352 13.3579 23.8657 14.0288L24.2359 14.3726L24.7118 14.2139L26.8537 13.4736L27.8585 15.1923L26.1662 16.6995L25.7695 17.0168L25.9017 17.5192C26.0108 18.0018 26.0604 18.4943 26.0604 19C26.0604 19.5057 26.0108 19.9982 25.9017 20.4808L25.796 20.9832L26.1662 21.3005L27.8585 22.8077L26.8537 24.5264L24.7118 23.7861L24.2359 23.6274L23.8657 23.9712C23.1352 24.6421 22.2626 25.1511 21.3008 25.4519L20.8248 25.6106L20.7191 26.113L20.296 28.3077H18.2864L17.8633 26.113L17.7575 25.6106L17.2816 25.4519C16.3197 25.1511 15.4471 24.6421 14.7166 23.9712L14.3465 23.6274L13.8705 23.7861L11.7287 24.5264L10.7239 22.8077L12.4162 21.3005L12.8128 20.9832L12.6806 20.4808C12.5715 19.9982 12.5219 19.5057 12.5219 19C12.5219 18.4943 12.5715 18.0018 12.6806 17.5192L12.8128 17.0168L12.4162 16.6995L10.7239 15.1923L11.7287 13.4736L13.8705 14.2139L14.3465 14.3726L14.7166 14.0288C15.4471 13.3579 16.3197 12.8489 17.2816 12.5481L17.7575 12.3894L17.8633 11.887L18.2864 9.69231ZM19.2912 14.7692C16.9642 14.7692 15.0604 16.6731 15.0604 19C15.0604 21.3269 16.9642 23.2308 19.2912 23.2308C21.6181 23.2308 23.5219 21.3269 23.5219 19C23.5219 16.6731 21.6181 14.7692 19.2912 14.7692ZM19.2912 16.4615C20.7025 16.4615 21.8296 17.5886 21.8296 19C21.8296 20.4114 20.7025 21.5385 19.2912 21.5385C17.8798 21.5385 16.7527 20.4114 16.7527 19C16.7527 17.5886 17.8798 16.4615 19.2912 16.4615Z" fill="#F8F9FA"/>
</svg>
