<svg width="29" height="28" viewBox="0 0 29 28" fill="none" xmlns="http://www.w3.org/2000/svg">
<path d="M10.8398 15.51L17.6698 19.49" stroke="#F8F9FA" stroke-width="2" stroke-linecap="round" stroke-linejoin="round"/>
<path d="M17.6598 8.51001L10.8398 12.49" stroke="#F8F9FA" stroke-width="2" stroke-linecap="round" stroke-linejoin="round"/>
<path d="M20.25 10C21.9069 10 23.25 8.65685 23.25 7C23.25 5.34315 21.9069 4 20.25 4C18.5931 4 17.25 5.34315 17.25 7C17.25 8.65685 18.5931 10 20.25 10Z" stroke="#F8F9FA" stroke-width="2" stroke-linecap="round" stroke-linejoin="round"/>
<path d="M8.25 17C9.90685 17 11.25 15.6569 11.25 14C11.25 12.3431 9.90685 11 8.25 11C6.59315 11 5.25 12.3431 5.25 14C5.25 15.6569 6.59315 17 8.25 17Z" stroke="#F8F9FA" stroke-width="2" stroke-linecap="round" stroke-linejoin="round"/>
<path d="M20.25 24C21.9069 24 23.25 22.6569 23.25 21C23.25 19.3431 21.9069 18 20.25 18C18.5931 18 17.25 19.3431 17.25 21C17.25 22.6569 18.5931 24 20.25 24Z" stroke="#F8F9FA" stroke-width="2" stroke-linecap="round" stroke-linejoin="round"/>
</svg>
