<svg width="256" height="256" viewBox="0 0 256 256" fill="none" xmlns="http://www.w3.org/2000/svg">
<g opacity="0.6" filter="url(#filter0_f_43208_19718)">
<circle cx="128" cy="128" r="51" fill="#38D9A9"/>
</g>
<g style="mix-blend-mode:overlay">
<path opacity="0.6" d="M146.042 60.346L137.263 94.4853" stroke="white"/>
<path opacity="0.6" d="M196.523 111.914L162.322 120.449" stroke="white"/>
<path opacity="0.6" d="M154.062 152.24L167.259 163.922L173.857 169.763" stroke="white"/>
<path opacity="0.6" d="M123.545 198.861L125.523 163.666" stroke="white"/>
<path opacity="0.6" d="M64.2295 158.564L96.0065 143.307" stroke="white"/>
<path opacity="0.6" d="M63.9004 99.1447L96.0527 113.594" stroke="white"/>
</g>
<g style="mix-blend-mode:overlay">
<path opacity="0.6" d="M144.678 96.8354L150.923 80.3539" stroke="white"/>
<path opacity="0.6" d="M86.1986 76.9445L97.7181 90.2839" stroke="white"/>
<path opacity="0.6" d="M80.1592 136.314L71.4006 137.288" stroke="white"/>
<path opacity="0.6" d="M95.7642 190.055L105.093 175.101" stroke="white"/>
<path opacity="0.6" d="M150.277 160.509L158.87 175.897" stroke="white"/>
<path opacity="0.6" d="M201.961 142.906L167.356 136.195" stroke="white"/>
</g>
<circle cx="199.5" cy="110.5" r="3.5" fill="#1975D3"/>
<circle cx="61.5" cy="97.5" r="5.5" fill="#1975D3"/>
<path fill-rule="evenodd" clip-rule="evenodd" d="M178.5 178C180.985 178 183 175.985 183 173.5C183 171.015 180.985 169 178.5 169C176.015 169 174 171.015 174 173.5C174 175.985 176.015 178 178.5 178ZM178.5 180C182.09 180 185 177.09 185 173.5C185 169.91 182.09 167 178.5 167C174.91 167 172 169.91 172 173.5C172 177.09 174.91 180 178.5 180Z" fill="#1975D3"/>
<path d="M141.885 52.9752L145.902 57.2306L151.744 56.8846L147.489 60.9024L147.835 66.7445L143.817 62.4891L137.975 62.835L142.231 58.8173L141.885 52.9752Z" fill="#1975D3"/>
<path d="M67.5371 150.787L67.35 156.636L71.7129 160.537L65.8635 160.35L61.9628 164.713L62.15 158.864L57.7871 154.963L63.6364 155.15L67.5371 150.787Z" fill="#1975D3"/>
<rect x="125.856" y="192" width="8" height="8" transform="rotate(58.9895 125.856 192)" fill="#1975D3"/>
<g filter="url(#filter1_d_43208_19718)">
<path fill-rule="evenodd" clip-rule="evenodd" d="M120.364 155L99 133.636L105.364 127.273L120.364 142.273L162.636 100L169 106.364L120.364 155Z" fill="#38D9A9"/>
<path d="M119.657 155.707L120.364 156.414L121.071 155.707L169.707 107.071L170.414 106.364L169.707 105.657L163.343 99.2929L162.636 98.5858L161.929 99.2929L120.364 140.859L106.071 126.566L105.364 125.859L104.657 126.566L98.2929 132.929L97.5858 133.636L98.2929 134.343L119.657 155.707Z" stroke="#38D9A9" stroke-width="2"/>
</g>
<defs>
<filter id="filter0_f_43208_19718" x="13" y="13" width="230" height="230" filterUnits="userSpaceOnUse" color-interpolation-filters="sRGB">
<feFlood flood-opacity="0" result="BackgroundImageFix"/>
<feBlend mode="normal" in="SourceGraphic" in2="BackgroundImageFix" result="shape"/>
<feGaussianBlur stdDeviation="32" result="effect1_foregroundBlur_43208_19718"/>
</filter>
<filter id="filter1_d_43208_19718" x="82.1716" y="83.1716" width="103.657" height="88.6569" filterUnits="userSpaceOnUse" color-interpolation-filters="sRGB">
<feFlood flood-opacity="0" result="BackgroundImageFix"/>
<feColorMatrix in="SourceAlpha" type="matrix" values="0 0 0 0 0 0 0 0 0 0 0 0 0 0 0 0 0 0 127 0" result="hardAlpha"/>
<feOffset/>
<feGaussianBlur stdDeviation="7"/>
<feComposite in2="hardAlpha" operator="out"/>
<feColorMatrix type="matrix" values="0 0 0 0 0.12549 0 0 0 0 0.788235 0 0 0 0 0.592157 0 0 0 1 0"/>
<feBlend mode="normal" in2="BackgroundImageFix" result="effect1_dropShadow_43208_19718"/>
<feBlend mode="normal" in="SourceGraphic" in2="effect1_dropShadow_43208_19718" result="shape"/>
</filter>
</defs>
</svg>
