<svg width="48" height="48" viewBox="0 0 48 48" fill="none" xmlns="http://www.w3.org/2000/svg">
<path d="M35.5688 13.8687C35.7421 13.1176 34.969 12.4983 34.275 12.8337L14.38 22.4075C13.7588 22.6922 13.6697 23.5383 14.2178 23.9463L14.2363 23.96L18.52 27.18V34.1087L19.8425 33.4475L23.9825 31.4637L29.3587 35.1725C29.8814 35.5439 30.6138 35.2689 30.7629 34.6453L30.7675 34.6262L35.5688 13.8687ZM33.355 15.335L29.3013 32.9012L25.19 30.0837L29.1575 21.3438L30.4513 18.4687L27.835 20.165L19.4975 25.5987L16.5363 23.385L33.355 15.335ZM26.1962 23.4425L23.35 29.71L20.36 31.1762V27.2087L26.1962 23.4425Z" fill="#F8F9FA"/>
</svg>
