<svg width="48" height="48" viewBox="0 0 48 48" fill="none" xmlns="http://www.w3.org/2000/svg">
<path d="M17 13.5C15.0703 13.5 13.5 15.0703 13.5 17V32.1667C13.5 33.4535 14.5465 34.5 15.8333 34.5H32.1667C33.4535 34.5 34.5 33.4535 34.5 32.1667V20.5C34.5 19.2132 33.4535 18.1667 32.1667 18.1667H20.5H19.3333H17C16.356 18.1667 15.8333 17.6428 15.8333 17C15.8333 16.3572 16.356 15.8333 17 15.8333H33.3333V13.5H17ZM15.8333 20.2858C16.2001 20.4167 16.5889 20.5 17 20.5H19.3333H20.5H32.1667V32.1667H15.8333V20.2858ZM28.6667 25.1667C28.0227 25.1667 27.5 25.6893 27.5 26.3333C27.5 26.9773 28.0227 27.5 28.6667 27.5C29.3107 27.5 29.8333 26.9773 29.8333 26.3333C29.8333 25.6893 29.3107 25.1667 28.6667 25.1667Z" fill="#F8F9FA"/>
</svg>
