<svg width="25" height="24" viewBox="0 0 25 24" fill="none" xmlns="http://www.w3.org/2000/svg">
<path d="M6.29102 3C4.63702 3 3.29102 4.346 3.29102 6V19C3.29102 20.103 4.18802 21 5.29102 21H19.291C20.394 21 21.291 20.103 21.291 19V9C21.291 7.897 20.394 7 19.291 7H9.29102H8.29102H6.29102C5.73902 7 5.29102 6.551 5.29102 6C5.29102 5.449 5.73902 5 6.29102 5H20.291V3H6.29102ZM5.29102 8.81641C5.60541 8.92856 5.93863 9 6.29102 9H8.29102H9.29102H19.291V19H5.29102V8.81641ZM16.291 13C15.739 13 15.291 13.448 15.291 14C15.291 14.552 15.739 15 16.291 15C16.843 15 17.291 14.552 17.291 14C17.291 13.448 16.843 13 16.291 13Z" fill="#F8F9FA"/>
</svg>
